<?xml version="1.0" encoding="iso-8859-1"?>
<!-- Generator: Adobe Illustrator 18.0.0, SVG Export Plug-In . SVG Version: 6.00 Build 0)  -->
<!DOCTYPE svg PUBLIC "-//W3C//DTD SVG 1.1//EN" "http://www.w3.org/Graphics/SVG/1.1/DTD/svg11.dtd">
<svg version="1.1" id="Capa_1" xmlns="http://www.w3.org/2000/svg" xmlns:xlink="http://www.w3.org/1999/xlink" x="0px" y="0px"
	 viewBox="0 0 60 60" style="enable-background:new 0 0 60 60;" xml:space="preserve">
<g>
	<rect x="13" y="14" style="fill:#556080;" width="22" height="22"/>
	<path style="fill:#7383BF;" d="M54,57H6v-3H3V6h3V3h48v3h3v48h-3V57z M8,55h44v-3h3V8h-3V5H8v3H5v44h3V55z"/>
	<polygon style="fill:#7383BF;" points="35,25 35,36 24,36 24,47 46,47 46,25 	"/>
	<g>
		<rect x="1" y="1" style="fill:#556080;" width="6" height="6"/>
		<path style="fill:#556080;" d="M8,8H0V0h8V8z M2,6h4V2H2V6z"/>
	</g>
	<g>
		<rect x="53" y="1" style="fill:#556080;" width="6" height="6"/>
		<path style="fill:#556080;" d="M60,8h-8V0h8V8z M54,6h4V2h-4V6z"/>
	</g>
	<g>
		<rect x="1" y="53" style="fill:#556080;" width="6" height="6"/>
		<path style="fill:#556080;" d="M8,60H0v-8h8V60z M2,58h4v-4H2V58z"/>
	</g>
	<g>
		<rect x="53" y="53" style="fill:#556080;" width="6" height="6"/>
		<path style="fill:#556080;" d="M60,60h-8v-8h8V60z M54,58h4v-4h-4V58z"/>
	</g>
</g>
<g>
</g>
<g>
</g>
<g>
</g>
<g>
</g>
<g>
</g>
<g>
</g>
<g>
</g>
<g>
</g>
<g>
</g>
<g>
</g>
<g>
</g>
<g>
</g>
<g>
</g>
<g>
</g>
<g>
</g>
</svg>
